<?xml version="1.0" encoding="UTF-8"?>
<svg id="Layer_1" xmlns="http://www.w3.org/2000/svg" version="1.1" viewBox="0 0 505.89 760.15">
  <!-- Generator: Adobe Illustrator 30.6.0, SVG Export Plug-In . SVG Version: 2.1.4 Build 109)  -->
  <defs>
    <style>
      .st0 {
        fill: #cb5230;
      }
    </style>
  </defs>
  <path class="st0" d="M52.02,174.41c-3.23-26.92,6.92-48.54,24.61-67.32,21.16-22.46,47.64-34.82,77.67-39.86,7.52-1.26,15.3-2.01,23.04-1.02,1.99.26,3.62.16,4.35-2.2,6.83-22.04,23.31-34.93,42.88-44.68C246.58,8.36,270,2.01,294.46.38c23.42-1.56,46.34,1.42,66.94,13.65,15.42,9.16,25.19,22.36,24.87,41.31,0,.29.26.58.51,1.09,6.39-1.79,12.71-4.19,19.25-5.26,21.31-3.5,41.8-3.26,61.55,8.55,15.3,9.15,25.38,21.34,29.8,37.98,3.8,14.31,1.81,28.47-4.39,42.12-3.2,7.04-8.34,12.49-12.89,18.46-.59.78-1.55,1.34-1.41,3.17,4.14,2.31,8.57,4.88,12.59,8.12,14.58,11.73,18.61,32.68,10.52,49.54-10.77,22.45-29.96,33.07-52.54,39.18-17.67,4.79-35.45,4.41-53.06-.73-2-.58-3.76-1.26-5.28,1.03-8.74,13.14-21.91,20.49-35.9,26.32-23.27,9.71-47.66,14.53-72.89,14.88-17.53.25-35.01-.2-52.16-4.52-16.2-4.08-32.01-8.77-46.49-17.78-13.39-8.34-22.88-19.28-28.15-33.96-1.94-5.42-1.66-11.22-1.86-16.91-.03-.98.08-2.05-1.21-2.86-3.69.71-7.59,1.5-11.51,2.2-23.09,4.09-44.71.51-64.31-12.77-13.61-9.22-21.66-22.13-24.42-38.79M61.21,169.33c.85,7.72,2.62,15.18,6.87,21.8,11.91,18.53,30.05,25.89,50.96,27.65,12.98,1.1,25.75-.55,37.91-5.61,2.17-.9,4.29-1.09,6.13.56,1.86,1.68.57,3.61.37,5.57-.96,9.51-1.51,18.89,2.87,28.04,7.16,14.98,20.38,23.02,34.36,29.4,12.5,5.71,25.76,9.42,39.77,11.32,16.02,2.17,31.96,3.22,47.96,2.48,20.81-.95,41.27-4.51,60.68-12.49,12.44-5.12,24.53-10.94,33.24-21.83.84-1.05,1.8-1.93,2.01-3.37,1.07-7.4,6.53-9.49,12.72-4.99,1.04.76,2.38,1.19,3.65,1.52,8.15,2.16,16.48,3.19,24.88,2.93,24.14-.76,45.97-7.2,61.82-26.9,18.64-23.16,7.19-52.7-20.39-58.16-2.31-.46-4.4-1.03-5.06-3.42-.77-2.8,1.33-4.33,3.3-5.62,14.24-9.33,21.28-23.02,23.95-39.35,2.6-15.87-3.2-29.69-13.45-40.64-18.98-20.25-43.34-23.64-69.45-17.83-8.81,1.96-17.33,4.99-25.29,9.43-1.68.93-3.75,1.88-5.61.12-1.95-1.85-1.03-3.88-.46-6.05,1.68-6.4,1.89-13.05,0-19.29-3.5-11.59-11.99-19.04-22.45-24.44-21.38-11.03-44.41-12.62-67.56-9.77-25.07,3.09-49.38,9.75-70.18,25.03-12.31,9.04-24.32,18.7-24.87,36.18-.1,3.36-2.62,6.86-6.36,4.99-7.9-3.94-15.86-3.43-24.04-2.2-18.2,2.72-35.43,8.06-51.26,17.81-17.51,10.79-31.85,24.46-40.72,43.21-4.92,10.39-7.71,21.38-6.31,33.91Z"/>
  <path class="st0" d="M117.61,697.85c-5.45-18.52-10.16-36.82-14.62-55.2-3.91-16.11-8.2-32.14-11.84-48.32-5.81-25.81-13.19-51.25-17.95-77.31-1.62-8.86-4.41-17.51-6.65-26.26-1.22-4.78.55-7.65,5.17-9.22,30.6-10.44,62-18.01,93.31-25.85,23.88-5.99,47.78-11.85,71.55-18.27,8.89-2.4,17.64-5.3,26.49-7.86,2.24-.65,4.59-1.1,6.91-1.23,4.39-.25,7.1,1.8,8.57,6.13,4.67,13.68,7,27.91,10.1,41.96,3.93,17.8,7.72,35.63,11.51,53.47,3.3,15.54,6.51,31.1,9.76,46.66.14.65.21,1.33.24,2,.14,2.45-.68,4.53-3.25,4.9-2.46.35-3.56-1.7-4.02-3.72-1.21-5.22-2.21-10.49-3.33-15.73-8.05-37.66-16.09-75.32-24.17-112.97-.77-3.59-1.97-7.1-2.71-10.69-.91-4.37-3.39-5.28-7.37-4.07-10.1,3.06-20.29,5.87-30.36,9.03-14.72,4.61-29.87,7.49-44.74,11.48-12.62,3.39-25.27,6.66-37.97,9.75-21.64,5.27-43.06,11.36-64.52,17.29-2.42.67-4.84,1.36-7.2,2.21-6.57,2.35-6.56,2.39-4.94,9.31,8.01,34.22,15.86,68.48,24.07,102.66,5.67,23.61,11.95,47.07,17.7,70.66,1.59,6.52,3.47,12.94,5.17,19.41.93,3.54,2.43,3.98,5.76,2.99,14.89-4.43,29.69-9.37,44.85-12.64,17.51-3.78,34.69-8.86,52.18-12.66,4.58-.99,9.02-2.61,13.59-3.66,2.55-.59,5.8-1.34,6.69,2.3.9,3.68-2.38,4.46-4.9,5.1-17.2,4.36-34.47,8.44-51.64,12.9-18.46,4.8-37.17,8.7-55.31,14.71-3.18,1.05-6.42,1.93-9.62,2.91-2.51.77-4.63.28-6.5-2.18Z"/>
  <path class="st0" d="M282.18,623.49c15.06-19.2,34.72-29.57,58.46-30.85,27.25-1.46,48.6,11,64.85,32,15.05,19.44,19.74,41.79,15.07,65.97-3.55,18.36-12.24,34.4-25.77,46.83-21.46,19.71-47.02,28.15-75.67,19.04-29.97-9.53-47.91-30.67-54.05-61.68-5.2-26.28,1.25-49.73,17.1-71.32M300.59,632.3c-1.33-1.5-2.67-3-4-4.5-4.21-4.74-4.41-4.69-8.39.52-8.69,11.4-14.55,23.95-16.33,38.33-3.57,28.73,4.46,52.78,27.64,71.17,22.97,18.22,58,19.85,82.83,0,3.85-3.07,4.08-5.04.97-8.8-26.85-32.55-53.74-65.07-82.72-96.73M359.76,602.38c-22-7.46-54.85,5.34-60.58,15.7.45.59.92,1.26,1.43,1.9,10.98,13.74,23.44,26.2,34.76,39.64,18.13,21.52,36.15,43.12,54.14,64.75,2.36,2.84,3.92,3.4,6.55.12,12.09-15.04,18.14-31.88,18.32-51.39.29-30.82-22.73-63.48-54.64-70.73Z"/>
  <path class="st0" d="M125.28,340.89c-10.51,3.79-20.53,3.26-30.12-1.48-11.87-5.87-20.1-20.42-8.4-37.98,11.64-17.47,33.98-24.4,53.57-16.85,13.11,5.05,18.08,18.91,13.37,31.41-4.91,13.03-15.29,20.35-28.42,24.9M113.45,290.91c-10.69,4.48-19.7,10.63-23.24,22.54-1.6,5.4.56,13.05,5.18,16.16,18.39,12.36,43.68.84,50.14-15.96,3.57-9.29.68-16.08-7.85-20.84-7.56-4.22-15.43-3.52-24.23-1.89Z"/>
  <path class="st0" d="M129.16,621.54c-4.77-1.66-5.62-3.91-2.74-7.77,12.01-16.12,27.14-26.26,48.18-22.2,14.8,2.85,25.71-3.5,35.77-12.77,8.74-8.06,17.17-16.49,27.57-22.46,10.7-6.14,22.34-7.82,34.46-6.2,2.49.33,5.56,1.42,4.84,4.6-.86,3.79-4.58,2.87-7.22,2.58-14.97-1.66-27.73,3.36-38.96,12.78-6.54,5.49-12.75,11.36-19.04,17.14-11.47,10.54-24.85,15.23-40.23,12.17-15.58-3.09-26.55,3.78-35.9,15.02-2.02,2.43-3.63,5.24-6.73,7.11Z"/>
  <path class="st0" d="M5.16,654.27c-9.31-31.88-6-62,9.89-90.71,1.05-1.89,2.4-3.65,3.84-5.26,1.62-1.81,3.67-3.43,6.04-1.28,2.09,1.91.9,3.95-.44,5.82-7.37,10.28-11.55,21.9-14,34.16-5.38,26.93-2.75,52.7,11.64,76.66,2.44,4.06,5.68,7.44,8.84,10.92,1.7,1.87,3.65,4.08,1.39,6.59-2.56,2.84-5.1.77-6.95-1.06-8.99-8.91-14.95-19.68-18.84-31.65-.41-1.27-.84-2.54-1.41-4.19Z"/>
  <path class="st0" d="M29.42,363.89c5.21-9.58,12.96-15.38,23.21-17.18,6.22-1.09,12.72-.97,18.27,2.92,11.73,8.21,11.67,24.19-.17,33.75-4.83,3.9-10.25,6.68-16.11,8.97-9.54,3.72-17.16.97-23.5-6-6.07-6.66-4.69-14.45-1.71-22.46M64.56,355.71c-12.14-3.98-23.14,1.61-28.72,13.43-3.57,7.56,3.63,17.04,10.61,16.27,9.59-1.06,18.62-4.68,23.4-14.29,3.47-6.98,2.25-10.72-5.28-15.41Z"/>
  <path class="st0" d="M200,550.12c-6.22,7.81-13.42,12.45-23.62,10.62-9.61-1.72-16.37-6.97-19.23-16.26-5.14-16.71,7.6-33.31,24.03-32.78,15.53.51,28.27,15.39,21.08,34.09-.54,1.39-1.36,2.68-2.26,4.32M189.66,550.62c6.06-5.38,9.2-11.76,6.69-19.98-1.84-6.02-8.29-11.02-14.54-11.43-6.38-.42-14.1,4.44-16.82,10.58-2.85,6.45-1.23,14.86,3.76,19.42,5.56,5.08,12.89,5.74,20.91,1.41Z"/>
  <path class="st0" d="M393.37,482.77c9.32,18.99,10.99,38.4,6.05,58.47-.4,1.61-.91,3.24-1.63,4.72-.82,1.68-2.3,2.34-4.2,1.82-1.87-.51-2.94-1.74-2.79-3.64.14-1.64.64-3.26,1.04-4.87,5.77-23.08,2.35-44.42-12.07-63.65-3.16-4.21-7.22-7.41-11.88-9.85-2.28-1.19-5.84-2.16-4.19-5.56,1.74-3.59,5.21-2.23,7.9-.83,9.88,5.14,16.68,13.23,21.77,23.39Z"/>
  <path class="st0" d="M47.65,655.15c-10.29-16.53-12.25-34.05-8.5-52.46,1.07-5.25,2.31-10.49,5.03-15.2.83-1.44,1.8-2.83,2.9-4.07,1.49-1.67,3.4-2.32,5.36-.88,1.91,1.41,1.31,3.14.31,4.9-5.45,9.57-7.43,20.08-7.54,30.89-.15,14.36,4.03,27.4,13.21,38.66.63.78,1.26,1.57,1.85,2.38,1.09,1.51,1.41,3.1.03,4.57-1.53,1.63-3.31,1.36-5.03.28-3.38-2.14-4.88-5.9-7.63-9.07Z"/>
  <path class="st0" d="M348.8,526.04c.3-13.02-3.6-24.16-11.1-34.15-2.37-3.15-5.53-5.34-8.62-7.64-2.2-1.64-3.98-3.65-1.84-6.27,2.01-2.46,4.76-1.71,6.72.1,7.39,6.83,14.83,13.68,18.2,23.62,3.95,11.64,5.15,23.51,3,35.67-.43,2.42-1.22,4.66-3.74,5.53-2.72.94-4.8-1.5-4.05-4.97.82-3.78,1.75-7.51,1.42-11.9Z"/>
  <path class="st0" d="M138,552.27c-4.46-2.98-4.48-4.68-.13-6.41,2.91-1.16,6.03-1.9,9.12-2.48,1.97-.36,3.59.6,4.02,2.82.39,2.04-.7,3.03-2.49,3.69-3.28,1.22-6.49,2.66-10.51,2.38Z"/>
  <path class="st0" d="M198.19,501.36c1.26-1.81,2.22-3.38,3.37-4.79,1.4-1.7,3.22-2.62,5.2-1.08,1.77,1.38,1.42,3.29.34,4.94-1.45,2.22-3.05,4.36-4.64,6.49-1.4,1.87-3.24,3.35-5.48,1.78-2.06-1.45-1.16-3.54-.08-5.35.34-.57.72-1.12,1.29-2Z"/>
  <path class="st0" d="M215.85,533.15c-2.64.24-4.57-.33-4.86-2.84-.26-2.33,1.64-3.04,3.47-3.6,2.39-.74,4.76-1.59,7.2-2.17,2.09-.5,4.16-.2,4.97,2.17.79,2.32-.98,3.46-2.7,4.12-2.48.94-5.11,1.52-8.07,2.33Z"/>
  <path class="st0" d="M167.32,500.04c-.55-2.32-.99-4.26-1.41-6.2-.36-1.68.18-3.02,1.79-3.66,1.88-.75,3.34.16,4.11,1.8,1.51,3.18,2.31,6.58,2.14,10.13-.08,1.64-.9,2.92-2.61,3.2-1.87.3-2.64-.94-3.06-2.55-.21-.8-.56-1.57-.96-2.72Z"/>
  <path class="st0" d="M153.43,575.56c-.42-5.34,2.92-8.51,6-11.68,1.31-1.35,3.42-1.14,4.14.83,1.62,4.44-2.17,7.02-4.12,10.12-1.36,2.17-3.45,3.23-6.02.73Z"/>
  <path class="st0" d="M191.23,578.96c-2.42,4.51-4.58,2.29-5.95-.18-1.46-2.62-1.77-5.74-1.69-8.79.04-1.44.69-2.66,2.13-3.11,1.8-.56,2.79.63,3.6,1.99,1.78,3,2.24,6.28,1.91,10.08Z"/>
  <path class="st0" d="M143.87,519.89c-2.35-2.24-7.4-3.28-4.52-7.18,2.53-3.43,5.65.13,8.32,1.53.74.39,1.4.92,2.07,1.42,1.8,1.33,2.88,3.08,1.56,5.16-1.24,1.95-3.2,1.39-4.96.57-.75-.35-1.44-.84-2.47-1.5Z"/>
  <path class="st0" d="M217.55,558.85c.46,3.52-1.24,4.73-4.06,4.01-2.95-.75-5.44-2.5-7.37-4.91-.85-1.06-1.49-2.31-.54-3.65.89-1.25,2.22-1.48,3.58-1.05,3.2,1.02,6.26,2.31,8.38,5.6Z"/>
  <path class="st0" d="M133.51,158.84c-2.08,5.92-2.42,11.66-2.58,17.32,2.75,1.27,4.72.05,6.77-.44,2.02-.48,4.61-1.94,5.62.99.92,2.68-1.99,2.97-3.62,3.89-.71.4-1.52.64-2.24.94-.53,2.43,1.2,3.87,2.02,5.61,3.41,7.24,3.49,14.55.43,21.86-1.3,3.11-3.66,5.38-7.32,5.09-3.43-.27-5.21-2.83-6.33-5.75-2.35-6.09-1.93-12.51-1.95-18.87-.01-2.73.08-5.15-3.31-6.45-2.86-1.09-2.25-3.56.27-4.11,3.96-.85,3.77-3.43,3.99-6.36.47-6.18,1.52-12.3,3.77-18.1,2.01-5.17,5.41-7.25,8.99-5.83,3.77,1.5,5.93,8.05,4.05,12.24-.58,1.3-1.33,2.45-2.89,2.36-1.83-.11-1.83-1.62-1.92-2.97-.13-1.78.22-3.65-.75-5.51-2.23.45-2.3,2.29-3,4.09M130.72,198.99c.47,3.02.34,6.21,2.33,8.92,5.46-5.01,4.37-17.21-2.12-22.84-.7,4.49-.39,8.75-.21,13.92Z"/>
  <path class="st0" d="M176.34,91.86c.91,4.29-.38,5.3-4.14,3.62-4.91-2.19-12.48,2.04-13.14,7.29-.48,3.77,2.04,4.67,5.07,4.31,2.31-.28,4.53-1.21,6.83-1.6,1.81-.31,3.39.41,3.91,2.33.46,1.73-.58,2.91-2.03,3.61-1.5.72-3.11,1.21-4.64,1.87-5.24,2.26-8.91,5.96-10.03,11.69-1.17,5.99,2.8,9.34,8.61,7.54,3.86-1.19,6.4-4.18,9.41-6.53,1.3-1.01,2.82-2.54,4.4-1.07,1.82,1.69.34,3.38-.87,4.79-2.31,2.7-5.07,4.88-8.13,6.65-5.95,3.44-12.2,3.34-15.95-.11-3.82-3.52-4.8-11.9-1.87-17.39,1.17-2.18,2.74-4.15,4.11-6.2-6.41-7.4-6.67-11.22-1.21-17.17,6.1-6.65,13.54-8.17,19.67-3.62Z"/>
  <path class="st0" d="M255.73,269.79c5.87-8.17,2.49-16.19.86-24.32-2.43.15-3.25,2.09-4.71,3.06-5.24,3.49-10.7,2.04-13.3-3.61-2.33-5.08-1.34-10.15-.03-15.21.35-1.34,1.22-2.56,2.81-2.4,2.06.21,1.97,1.97,2.01,3.46.08,3.18,0,6.36.14,9.53.08,1.93.8,3.77,2.82,4.33,2.06.57,3.53-.84,4.61-2.35,2.09-2.92,3.3-6.13,3.14-9.84-.08-1.94-.21-4.51,2.58-4.62,2.34-.09,2.58,2.22,2.94,4.02,1.53,7.7,3.1,15.4,4.56,23.11.85,4.5.84,9.01-.89,13.35-2.68,6.71-10.84,10.57-17.84,8.52-1.69-.5-3.44-1.15-3.09-3.24.34-2.1,2.28-2.31,3.98-2.09,3.22.41,6.35.67,9.43-1.69Z"/>
  <path class="st0" d="M420.5,115.51c.19,5.69,1.53,10.66,3.12,15.62.55,1.73,2.16,4.11-.47,5.29-2.71,1.22-3.76-1.31-4.82-3.17-.64-1.12-1.05-2.36-2.27-5.16-1.68,2.35-2.58,4.25-4.04,5.52-4.38,3.83-10.13,4.19-13.79,1.15-3.45-2.86-4.29-9.12-1.57-13.88,2.77-4.84,6.81-8.47,12.43-9.32,4.39-.66,5.49-2.85,5.05-6.81-.26-2.31-.09-4.68-.04-7.02.03-1.7.08-3.64,2.3-3.84,2.48-.23,3.05,1.75,3.14,3.66.18,3.67.08,7.36.23,11.03.09,2.16.44,4.31.72,6.92M402.9,121.76c-1.58,3.05-3.37,6.7.3,8.85,3.29,1.93,5.95-1.21,7.83-3.71,2.05-2.71,5.22-6.57,2.02-9.21-3.53-2.92-6.97.68-10.16,4.07Z"/>
  <path class="st0" d="M255.13,122.71c-1.89,5.77-5.67,9.13-11.05,10.43-4.26,1.03-5.31,3.31-4.12,7.3.66,2.23,1.01,4.58,1.22,6.9.21,2.39,1.1,5.63-2.37,6.16-3.1.47-3.49-2.61-3.85-4.86-1.12-6.92-2.03-13.87-3.11-20.8-.57-3.62-1.54-7.19-1.91-10.83-.24-2.34-1-5.78,2.18-6.42,3.52-.71,2,3.48,3.62,5.12,3.49-4.31,7.32-8.02,13.55-5.38,4.54,1.92,6.41,5.75,5.85,12.38M241.15,118.07c-.49,1.23-1.23,2.43-1.43,3.71-.32,2.05-1.45,4.67.83,5.96,2.55,1.44,4.75-.41,6.59-2.18.71-.68,1.28-1.54,1.79-2.39,1.58-2.67,1.27-5.2-1.1-7.16-2.55-2.1-4.61-.88-6.68,2.06Z"/>
  <path class="st0" d="M392.33,182.77c3.1,1.69,5.91,3.17,8.68,4.72,1.34.75,2.79,1.78,2.14,3.5-.74,1.96-2.58,1.77-4.29,1.36-4.72-1.13-8.6-4.27-13.38-6.06,0,2.75.05,5.04-.02,7.32-.04,1.24-.54,2.34-1.93,2.56-1.41.22-2.1-.79-2.68-1.84-1.09-1.98-.94-4.22-1.24-6.36-1.46-10.44-2.23-20.94-2.55-31.47-.05-1.66.03-3.35.25-5,.21-1.56.91-3,2.78-3.01,2.29,0,2.6,1.79,2.67,3.51.22,5.01.32,10.02.52,15.03.07,1.8-.27,3.67.94,5.89,3.05-2.34,5.95-4.69,8.99-6.83,1.48-1.05,3.45-2.21,4.91-.25,1.51,2.02-.46,3.35-1.73,4.6-2.84,2.8-5.74,5.52-8.43,8.09.55,2.72,2.56,3.09,4.34,4.22Z"/>
  <path class="st0" d="M283.08,189.42c-2.27-1.05-3.89-2.67-6.24-2.86-.73,2.28.54,4.33.41,6.46-.1,1.6-.62,3.11-2.44,3.32-1.58.18-2.46-1.05-2.82-2.39-.52-1.93-.87-3.91-1.15-5.9-1.57-11.12-2.42-22.3-2.66-33.53-.02-.84,0-1.68.11-2.51.27-1.76.94-3.41,2.99-3.45,2.36-.05,2.4,1.89,2.49,3.59.35,6.99.67,13.99,1.04,21.81,3.45-2.9,6.25-5.4,9.21-7.69,1.59-1.24,3.66-2.48,5.35-.41,1.69,2.06-.5,3.27-1.69,4.55-2.8,3.04-6.48,5.24-8.83,9.09,3.42,3.62,8.15,4.73,12.04,7.19,1.78,1.13,4.67,1.93,3.37,4.62-1.18,2.44-3.87,1.35-5.88.67-1.73-.58-3.32-1.58-5.29-2.58Z"/>
  <path class="st0" d="M425.48,166.13c.29,3.77-2.93,4.8-4.68,6.89-1.79,2.14-4.31,3.66-5.79,6.35,3.3,3.77,7.84,5.26,11.81,7.61,1.61.96,4.39,1.61,3.15,4.18-1.02,2.1-3.57,1.71-5.43.92-3.79-1.6-7.46-3.5-11.16-5.26-1.33,1.88-.62,3.57-.61,5.18.01,1.86.37,4.11-2.15,4.33-2.31.21-3-1.98-3.3-3.77-.69-4.12-1.25-8.27-1.63-12.43-.81-8.83-1.74-17.66-1.44-26.54.07-2.06-.14-5.04,2.84-5,3.18.04,2.42,3.06,2.45,5.08.11,6.49-.14,13,1.39,19.89,3.02-2.51,5.72-4.92,8.6-7.07,1.68-1.25,3.59-2.83,5.94-.38Z"/>
  <path class="st0" d="M292.9,121.53c-1.22,4.92.63,8.12,4.62,10.23,1.43.76,3.67,1.08,2.89,3.29-.77,2.16-2.98,1.89-4.79,1.45-2.51-.61-4.79-1.91-6-4.22-1.46-2.79-3.54-3.63-6.41-2.72-.33-.7-.83-1.36-.7-1.54,3.78-4.95,1.87-10.52,1.75-15.88-.12-5.54.05-11.03,1.68-16.4,1.17-3.83,3.2-6.91,7.57-6.77,4.66.14,5.8,3.9,6.5,7.66,1.08,5.85-.65,11.27-2.89,16.53-1.18,2.76-2.73,5.36-4.23,8.37M293.69,107.87c1.21-4.24,2.83-8.5-.81-13.36-3.87,6.88-2.94,13.6-1.91,20.44.83-2.12,1.65-4.23,2.72-7.09Z"/>
  <path class="st0" d="M326.46,176.62c-1.28-7.62-.87-14.74,1.04-21.8,1.11-4.1,3.37-7.42,7.88-6.91,4.36.49,5.44,4.37,5.84,8.26.79,7.63-1.46,14.53-4.94,21.17-3.65,6.97-3.09,9.17,3.43,13.61,1.17.79,2.39,1.52,1.63,3.14-.64,1.37-1.98,1.71-3.4,1.6-4.69-.35-6.75-3.85-8.71-7.3-1.53-1.56-3.71,1.87-4.91-.72-.86-1.85.45-3.22,1.57-4.43,1.81-1.96.76-4.11.59-6.63M331.24,167.03v6.82c5.87-8.87,6.59-15.01,2.76-19.14-2.63,3.48-1.75,7.73-2.76,12.32Z"/>
  <path class="st0" d="M306.17,194.9c-8.08,0-11.86-4.05-11.1-11.55.56-5.48,2.38-10.45,6.64-14.18,7.15-6.26,16.63-3.05,18.25,6.25.89,5.09,1.32,10.26,1.96,15.39.24,1.94,1.26,4.31-1.34,5.19-2.29.78-2.99-1.53-3.95-3.03-.44-.68-.84-1.38-1.3-2.14-3.06,1.39-5.91,2.69-9.16,4.07M313.37,178.25c-.11-2.65.29-5.85-3-6.7-3.3-.85-5.14,1.9-6.69,4.25-1.56,2.36-2.74,4.98-2.78,7.93-.05,4.11,2.03,5.89,6.03,4.93,4.99-1.21,6.01-5.23,6.43-10.4Z"/>
  <path class="st0" d="M305.92,134.63c-5.06-4.73-5.64-9.72-2.36-17.18,2.8-6.37,8.32-10.38,13.78-10.02,5.42.36,9.02,4.32,9.56,11.08.37,4.68.29,9.37,1.82,13.91.58,1.71,1.06,3.96-1.19,4.81-2.04.77-2.76-1.32-3.72-2.64-.58-.79-1.16-1.59-1.9-2.61-4.9,3.04-9.85,5.48-15.98,2.66M314.21,113.4c-4.31,2.42-6.11,6.48-6.8,11.05-.59,3.86,1.82,6.25,5.46,5.77,3.35-.44,5.52-2.49,6.26-5.63.87-3.7,1.59-7.58-1.02-10.98-.78-1.01-2.06-.92-3.9-.21Z"/>
  <path class="st0" d="M441.6,190.12c3.59.77,6.59-.75,9.74-1,1.76-.14,3.59-.07,4.05,2,.46,2.05-1.26,2.94-2.79,3.63-6.29,2.85-15.72.96-19.41-3.82-4.31-5.59-3.91-15.39.85-21.08,3.37-4.01,9.77-5.04,13.56-2.17,3.73,2.83,4.26,7.79,1.35,12.67-1.94,3.25-3.52,4.43-10.21,7.57.2,1.46,1.6,1.49,2.86,2.19M441.96,179.8c.62-.55,1.32-1.02,1.83-1.65,1.36-1.67,2.05-3.51.35-5.34-1.19-1.27-2.76-1.18-4.1-.32-2.1,1.35-3.25,3.46-2.94,5.9.33,2.6,2.34,2.29,4.86,1.41Z"/>
  <path class="st0" d="M315.92,235.84c.88-4.82,3.03-8.27,7.24-10.06,3.8-1.62,7.64-1.76,10.65,1.56,3.07,3.39,2.97,7.31.9,11.2-1.87,3.5-5.49,6.03-11.33,8.08,3.49,3.9,7.71,2.27,11.65,1.89,2.11-.2,4.86-1.55,5.57,1.32.78,3.14-2.44,3.68-4.58,4.14-15.73,3.39-22.56-6.61-20.1-18.14M327.21,230.54c-1.45.09-2.59.8-3.31,1.99-1.03,1.71-2.25,3.55-1.02,5.57.84,1.37,2.41,1.06,3.65.53,2.13-.91,3.68-2.43,3.56-4.94-.06-1.39-.73-2.57-2.88-3.15Z"/>
  <path class="st0" d="M218.48,190.2c-.49.51-.72.76-.97.98-5.85,5.2-12.14,6.16-16.25,2.48-4.32-3.86-4.61-11.68-.57-17.59,3.05-4.46,7.49-6.67,12.73-7.06,5.56-.41,10.25,5.97,9.33,12.38-.46,3.25-2.04,5.99-4.27,8.8M204.05,186.16c.28,2.41,1.68,3.45,4.06,3.49,5.39.09,10.51-7.45,8.33-12.34-1.16-2.61-3.17-2.81-5.38-1.59-3.8,2.11-6.76,4.93-7.01,10.44Z"/>
  <path class="st0" d="M157.69,195.24c-9.28,1.33-14.41-4.16-12.63-13.03,1.13-5.65,4.19-9.79,9.63-11.9,4.22-1.63,8.45-2.55,11.95,1.56,3.29,3.86,4.02,9.81,1.59,14.07-2.37,4.15-5.43,7.63-10.55,9.3M156.56,189.48c4.1-1.56,6.49-4.58,7.41-8.78.42-1.92-.05-3.78-1.6-4.99-1.71-1.33-3.53-.61-5.09.51-2.19,1.56-4.27,3.27-5.72,5.57-2.85,4.52-1.3,7.32,5,7.7Z"/>
  <path class="st0" d="M357.91,131.13c-2.02-10.37,1.36-16.71,10.25-19.81,7.64-2.67,14.68,2.93,13.95,11.09-.54,5.97-7.31,13.34-13.23,14.28-4.75.75-8.65-.47-10.97-5.55M364.08,130.02c3.35,2.44,6.04.63,8.52-1.48,2.92-2.48,3.85-5.78,3.12-9.51-.4-2.04-1.92-2.54-3.78-2.41-5.31.37-9.96,7.55-7.86,13.4Z"/>
  <path class="st0" d="M178.37,111.04c.99-2.7,3.1-2.16,4.8-1.99,3.69.35,4.64-1.32,4.5-4.71-.12-2.88-.78-7.38,2.85-7.55,4.01-.18,2.25,4.36,2.6,6.87.85,6.14,3.09,7.98,9.51,7.08,2.06-.29,4.41-.89,4.97,1.75.66,3.12-2.25,3.28-4.24,3.74-8.25,1.9-8.25,1.84-6.29,10.39.48,2.11.92,4.25,1.13,6.4.14,1.42.4,3.22-1.71,3.61-1.73.32-2.87-.74-3.64-2.13-1.66-3.02-2.09-6.39-2.13-9.72-.07-5.67-1.53-9.85-8.16-10.3-1.8-.12-3.59-.96-4.19-3.45Z"/>
  <path class="st0" d="M261.03,116.12c1.27-1.15,2.22-2.13,3.33-2.85,5.49-3.55,10.23-3.84,13.5-.94,4.05,3.6,5.14,10.5,2.34,15.8-2.42,4.57-6.36,7.4-11.32,8.49-8.16,1.8-13.94-5.74-11.34-14.59.63-2.13,1.75-3.98,3.48-5.91M262.99,128.31c1.26,2.86,3.57,3.58,6.21,2.48,4.19-1.74,6.72-4.98,6.92-9.62.17-3.93-2.42-5.83-5.82-3.99-4.03,2.19-7.55,5.1-7.31,11.13Z"/>
  <path class="st0" d="M180.8,178.94c-.26-3.14-1.71-4.64-4.42-5.13-1.81-.33-3.59-.83-5.33-1.42-1.12-.38-2.2-1.1-2.08-2.5.12-1.4,1.29-1.95,2.47-2.12,1.97-.28,3.96-.35,6.21-.54.32-3.24.54-6.36.96-9.45.19-1.39.97-2.66,2.62-2.5,1.41.14,1.7,1.41,1.86,2.62.19,1.49.31,3,.62,4.47,1.38,6.5,2.55,7.35,9.23,7.09,1.88-.07,4.63-1.12,4.94,1.76.34,3.17-2.66,3.31-4.93,3.73-2.26.42-4.71-.41-7.02,1.08-.4,4.58,1.77,8.72,2.57,13.1.43,2.34,1.95,5.55-1.71,6.2-3.13.55-3.97-2.51-4.39-5.05-.6-3.63-1.01-7.3-1.58-11.35Z"/>
  <path class="st0" d="M306.36,251.24c-.14,1.84-.64,3.14-2.36,3.03-1.87-.12-2.96-1.47-3.64-3.08-1.46-3.47-1.62-7.23-1.79-10.86-.23-4.87-2.27-7.46-7.1-7.97-.98-.1-1.93-.55-2.88-.88-1.32-.46-2.63-1.12-2.4-2.76.24-1.68,1.8-2.06,3.11-1.86,5.44.85,6.83-1.85,6.22-6.63-.12-.96.12-2.01.37-2.98.4-1.52,1.16-3,2.95-2.95,2.15.06,1.88,1.92,2.06,3.38.23,1.82.44,3.65.77,5.45.85,4.75,3.73,6.5,8.36,5.46,2.18-.49,4.87-1.23,5.35,1.73.5,3.07-2.48,2.91-4.57,3.26-1.16.19-2.32.53-3.48.53-4.01.03-4.8,1.81-3.63,5.48,1.17,3.65,1.76,7.49,2.63,11.64Z"/>
  <path class="st0" d="M280.98,224.04c-1,3.44-4.21,3.3-6.39,4.68-2.04,1.3-4.26,2.68-3.6,5.43.63,2.63,3.23,2.52,5.39,2.69,1.17.09,2.35.04,3.52.08,2.67.1,5.52-.14,7,2.83,1.51,3.02.1,5.52-1.58,7.91-1.75,2.5-3.83,4.68-6.59,6.08-1.54.79-3.3,1.47-4.44-.43-.98-1.64.28-2.76,1.5-3.78,2.02-1.68,4.46-3.05,4.94-6.15-2.18-1.89-4.84-.77-7.22-1.17-8.59-1.45-11.41-8.6-5.98-15.5,2.13-2.7,4.89-4.61,8.16-5.63,2.42-.75,4.26.14,5.26,2.94Z"/>
  <path class="st0" d="M349.83,222.74c1.71-.75,3.06-1.58,4.49-1.78,2-.28,3.7.68,4.29,2.68.56,1.89-1.08,2.58-2.41,3.29-2.06,1.1-4.24,1.99-6.17,3.27-1.45.97-2.16,2.63-1.56,4.42.56,1.68,2.1,2.06,3.64,2.14,2.34.13,4.69.03,7.02.24,5.32.48,7.27,3.97,4.88,8.79-1.68,3.38-4.34,5.92-7.58,7.82-1.47.86-3.24,1.64-4.52-.07-1.37-1.83.18-3.06,1.46-4.16,1.95-1.7,4.72-2.73,4.85-5.95-1.29-1.64-3.09-.93-4.67-1.08-4.18-.37-8.92-.25-10.57-5.04-1.68-4.88.41-9.16,4.11-12.59.73-.68,1.6-1.2,2.74-1.99Z"/>
  <path class="st0" d="M260.81,165.04c-.54,3.5-3.56,3.36-5.67,4.45-2.46,1.26-5.13,2.57-4.53,5.83.67,3.64,3.95,2.87,6.52,3.03.83.05,1.67-.12,2.5-.15,2.55-.08,5.16-.15,6.71,2.39,1.63,2.68.59,5.19-.95,7.5-1.98,2.95-4.44,5.44-7.57,7.19-1.43.8-2.98.99-4.05-.5-1.19-1.65.02-2.78,1.21-3.79,2.25-1.9,5.09-3.3,5.82-6.77-2.34-2.04-5.13-.91-7.64-1.09-7.78-.56-10.69-5.22-7.6-12.37,1.79-4.15,5.35-6.38,9.17-8.13,2.36-1.08,4.62-.41,6.09,2.41Z"/>
  <path class="st0" d="M213.29,238.74c-.6-3.32-3.43-7.49.54-8.76,3.9-1.25,3.14,4.03,4.7,6.24.17.24.5.38.84.62,1.27-1.94,2.32-4.04,3.83-5.73,3.29-3.69,8.35-3.62,11.41-.04,1.13,1.32,2.1,2.76.81,4.47-1.21,1.61-2.78,1.78-4.39.63-4.4-3.15-5.3.17-5.65,3.33-.37,3.29-.04,6.66-.06,10-.01,1.82.23,3.94-2.12,4.53-2.11.53-3.41-.96-4.48-2.52-2.59-3.77-3.97-8.07-5.42-12.77Z"/>
  <path class="st0" d="M341.24,136.49c-6.77-5.21-7.73-12.86-9.59-20.05-.41-1.58-.21-3.7,1.78-4.2,2.46-.62,2.91,1.66,3.55,3.33.46,1.2.36,2.66,1.8,3.45,1.8-1.16,1.92-3.4,3.13-4.94,3.38-4.31,8.79-4.72,12.09-.82,1.16,1.37,1.83,2.93.79,4.57-1.09,1.73-2.81,1.87-4.34.72-3.53-2.64-4.68-.34-5.58,2.53-1.08,3.44-.79,6.93-.32,10.42.33,2.45.59,4.85-3.3,4.99Z"/>
  <path class="st0" d="M370.61,195.35c-5.51-7.34-4.79-15.52-4.21-23.63.09-1.29,1.15-2.51,2.8-2.3,1.41.18,1.76,1.44,1.97,2.58,1.08,6.07,2.26,12.12,3.08,18.23.31,2.31.79,5.39-3.64,5.12Z"/>
  <path class="st0" d="M387.73,134.98c-4.07-9.53-3.77-21.89.5-24.49,2.7,2.32,2.08,5.81,2.83,8.75,1.08,4.21,1.93,8.51,2.41,12.82.52,4.65-1.14,5.51-5.74,2.92Z"/>
  <path class="st0" d="M387.57,102.95c-2.58.49-3.97-.4-3.74-2.77.15-1.58,1.45-2.36,2.91-1.74,2.03.86,2.67,2.39.83,4.51Z"/>
  <path class="st0" d="M365,160.28c0-2.59,1.04-3.86,3.34-2.94,1.51.61,2.4,2.09,1.25,3.56-1.41,1.82-3.08,1.48-4.6-.62Z"/>
</svg>